<svg width="3466" height="655" viewBox="0 0 3466 655" fill="none" xmlns="http://www.w3.org/2000/svg">
<path d="M270.484 129L507.326 372.938L236.842 635.554L0 391.616L270.484 129Z" fill="white"/>
<path d="M540.484 52L777.326 295.938L506.842 558.554L270 314.616L540.484 52Z" fill="white"/>
<path d="M810.484 148L1047.33 391.938L776.842 654.554L540 410.616L810.484 148Z" fill="white"/>
<path d="M1143.48 11L1380.33 254.938L1109.84 517.554L873 273.616L1143.48 11Z" fill="white"/>
<path d="M1366.48 129L1603.33 372.938L1332.84 635.554L1096 391.616L1366.48 129Z" fill="white"/>
<path d="M1668.48 1L1905.33 244.938L1634.84 507.554L1398 263.616L1668.48 1Z" fill="white"/>
<path d="M1938.48 61L2175.33 304.938L1904.84 567.554L1668 323.616L1938.48 61Z" fill="white"/>
<path d="M2101.48 119L2338.33 362.938L2067.84 625.554L1831 381.616L2101.48 119Z" fill="white"/>
<path d="M2305.48 10L2542.33 253.938L2271.84 516.554L2035 272.616L2305.48 10Z" fill="white"/>
<path d="M2510.48 20L2747.33 263.938L2476.84 526.554L2240 282.616L2510.48 20Z" fill="white"/>
<path d="M2641.48 109L2878.33 352.938L2607.84 615.554L2371 371.616L2641.48 109Z" fill="white"/>
<path d="M2877.48 0L3114.33 243.938L2843.84 506.554L2607 262.616L2877.48 0Z" fill="white"/>
<path d="M3017.48 99L3254.33 342.938L2983.84 605.554L2747 361.616L3017.48 99Z" fill="white"/>
<path d="M3228.48 1L3465.33 244.938L3194.84 507.554L2958 263.616L3228.48 1Z" fill="white"/>
</svg>
